<svg xmlns:dc="http://purl.org/dc/elements/1.1/" xmlns:cc="http://creativecommons.org/ns#" xmlns:rdf="http://www.w3.org/1999/02/22-rdf-syntax-ns#" xmlns:svg="http://www.w3.org/2000/svg" xmlns="http://www.w3.org/2000/svg" xmlns:xlink="http://www.w3.org/1999/xlink" xmlns:inkscape="http://www.inkscape.org/namespaces/inkscape" version="1.1" width="990" height="330" id="svg2" xml:space="preserve" xmlns:xml="http://www.w3.org/XML/1998/namespace"><metadata id="metadata8"><rdf:RDF><cc:Work rdf:about=""><dc:format>image/svg+xml</dc:format><dc:type rdf:resource="http://purl.org/dc/dcmitype/StillImage"/></cc:Work></rdf:RDF></metadata><defs id="defs6"/><g transform="matrix(1.25,0,0,-1.25,0,565)" id="g10"><g transform="scale(0.1,0.1)" id="g12"><path d="m 2287.48,2849.84 0,708.01 91.59,0 433.26,-570.35 0,570.35 86.61,0 0,-708.01 -91.58,0 -433.22,575.36 0,-575.36 -86.66,0 z" inkscape:connector-curvature="0" id="path14" style="fill:#cccccc;fill-opacity:1;fill-rule:nonzero;stroke:none"/><path d="m 3601.98,2877.57 c -57.08,-21.82 -118.68,-32.68 -184.68,-32.68 -256.43,0 -384.69,122.93 -384.69,368.86 0,232.7 123.78,349.08 371.3,349.08 71.01,0 137.04,-9.94 198.07,-29.76 l 0,-79.21 c -61.03,23.1 -123.78,34.68 -188.18,34.68 -193.06,0 -289.56,-91.63 -289.56,-274.79 0,-196.39 95,-294.62 285.17,-294.62 30.34,0 64,3.99 100.99,11.93 l 0,240.6 91.58,0 0,-294.09 z" inkscape:connector-curvature="0" id="path16" style="fill:#cccccc;fill-opacity:1;fill-rule:nonzero;stroke:none"/><path d="m 3748.05,3123.14 0,434.68 91.54,0 0,-434.68 c 0,-135.98 67.68,-204.06 203.03,-204.06 135.32,0 203,68.08 203,204.06 l 0,434.68 91.58,0 0,-434.68 c 0,-185.56 -98.19,-278.3 -294.58,-278.3 -196.38,0 -294.57,92.74 -294.57,278.3 z" inkscape:connector-curvature="0" id="path18" style="fill:#cccccc;fill-opacity:1;fill-rule:nonzero;stroke:none"/><path d="m 4592.17,3557.85 0,-633.77 370.42,0 0,-74.24 -461.96,0 0,708.01 91.54,0 z" inkscape:connector-curvature="0" id="path20" style="fill:#cccccc;fill-opacity:1;fill-rule:nonzero;stroke:none"/><path d="m 5094.73,2849.83 -95.04,0 352.01,801.41 352.01,-801.41 -101.48,0 -91.62,222.81 -234.13,0 25.23,74.2 178.25,0 -132.21,320.88 -253.02,-617.89 z" inkscape:connector-curvature="0" id="path22" style="fill:#cccccc;fill-opacity:1;fill-rule:nonzero;stroke:none"/><path d="m 5800.26,2849.84 0,708.01 302.03,0 c 134.69,0 202.01,-56.64 202.01,-169.82 0,-92.12 -65.81,-160.28 -197.53,-204.46 l 243.08,-333.73 -120.81,0 -225.25,318.35 0,59.87 c 135.31,21.51 202.94,73.49 202.94,155.98 0,65.33 -37.61,98.06 -112.83,98.06 l -202.06,0 0,-632.26 -91.58,0 z" inkscape:connector-curvature="0" id="path24" style="fill:#cccccc;fill-opacity:1;fill-rule:nonzero;stroke:none"/><path d="m 6692.99,3557.85 0,-504.05 c 0,-135.97 -80.05,-203.96 -240.16,-203.96 l 0,74.24 c 99.04,0 148.58,43.29 148.58,129.72 l 0,504.05 91.58,0 z" inkscape:connector-curvature="0" id="path26" style="fill:#cccccc;fill-opacity:1;fill-rule:nonzero;stroke:none"/><path d="m 6856.37,2874.6 0,84.18 c 74.29,-26.39 154.47,-39.65 240.65,-39.65 121.78,0 182.72,44.57 182.72,133.76 0,75.79 -44.92,113.85 -134.69,113.85 l -91.14,0 c -148.18,0 -222.33,64.31 -222.33,193.05 0,135.32 94.95,203.04 284.78,203.04 82.49,0 159.21,-9.98 230.22,-29.76 l 0,-84.18 c -71.01,26.44 -147.73,39.65 -230.22,39.65 -128.75,0 -193.11,-42.93 -193.11,-128.75 0,-75.88 43.55,-113.84 130.66,-113.84 l 91.14,0 c 150.79,0 226.27,-64.4 226.27,-193.06 0,-138.68 -91.4,-208 -274.3,-208 -86.18,0 -166.36,9.93 -240.65,29.71 z" inkscape:connector-curvature="0" id="path28" style="fill:#cccccc;fill-opacity:1;fill-rule:nonzero;stroke:none"/><path d="m 2310.65,2872.97 0,708.01 91.58,0 433.22,-570.35 0,570.35 86.66,0 0,-708.01 -91.59,0 -433.25,575.36 0,-575.36 -86.62,0 z" inkscape:connector-curvature="0" id="path30" style="fill:#000000;fill-opacity:1;fill-rule:nonzero;stroke:none"/><path d="m 3625.15,2900.71 c -57.08,-21.82 -118.64,-32.68 -184.68,-32.68 -256.43,0 -384.69,122.94 -384.69,368.86 0,232.7 123.78,349.08 371.34,349.08 70.96,0 137,-9.93 198.03,-29.76 l 0,-79.21 c -61.03,23.11 -123.78,34.68 -188.14,34.68 -193.05,0 -289.6,-91.63 -289.6,-274.79 0,-196.39 95.04,-294.62 285.17,-294.62 30.33,0 64.04,3.94 101.03,11.93 l 0,240.6 91.54,0 0,-294.09 z" inkscape:connector-curvature="0" id="path32" style="fill:#000000;fill-opacity:1;fill-rule:nonzero;stroke:none"/><path d="m 3771.21,3146.29 0,434.73 91.54,0 0,-434.73 c 0,-135.97 67.68,-204 203.04,-204 135.31,0 202.99,68.03 202.99,204 l 0,434.73 91.58,0 0,-434.73 c 0,-185.56 -98.19,-278.25 -294.57,-278.25 -196.39,0 -294.58,92.69 -294.58,278.25 z" inkscape:connector-curvature="0" id="path34" style="fill:#000000;fill-opacity:1;fill-rule:nonzero;stroke:none"/><path d="m 4615.34,3581.02 0,-633.77 370.37,0 0,-74.24 -461.91,0 0,708.01 91.54,0 z" inkscape:connector-curvature="0" id="path36" style="fill:#000000;fill-opacity:1;fill-rule:nonzero;stroke:none"/><path d="m 5117.9,2872.98 -95.04,0 352.01,801.46 352.01,-801.46 -101.52,0 -91.58,222.82 -234.17,0 25.28,74.24 178.2,0 -132.17,320.88 -253.02,-617.94 z" inkscape:connector-curvature="0" id="path38" style="fill:#000000;fill-opacity:1;fill-rule:nonzero;stroke:none"/><path d="m 5823.43,2872.97 0,708.01 302.03,0 c 134.69,0 201.97,-56.59 201.97,-169.82 0,-92.07 -65.77,-160.28 -197.49,-204.45 l 243.08,-333.74 -120.85,0 -225.21,318.35 0,59.91 c 135.31,21.52 202.99,73.45 202.99,155.98 0,65.33 -37.66,98.02 -112.92,98.02 l -202.01,0 0,-632.26 -91.59,0 z" inkscape:connector-curvature="0" id="path40" style="fill:#000000;fill-opacity:1;fill-rule:nonzero;stroke:none"/><path d="m 6716.15,3581.02 0,-504.04 c 0,-136.03 -80.05,-203.97 -240.16,-203.97 l 0,74.24 c 99.03,0 148.57,43.29 148.57,129.73 l 0,504.04 91.59,0 z" inkscape:connector-curvature="0" id="path42" style="fill:#af2b2d;fill-opacity:1;fill-rule:nonzero;stroke:none"/><path d="m 6879.5,2897.77 0,84.18 c 74.29,-26.39 154.48,-39.65 240.65,-39.65 121.79,0 182.73,44.57 182.73,133.71 0,75.84 -44.93,113.85 -134.7,113.85 l -91.14,0 c -148.17,0 -222.33,64.35 -222.33,193.1 0,135.32 94.91,203.04 284.77,203.04 82.5,0 159.23,-9.98 230.23,-29.76 l 0,-84.18 c -71,26.43 -147.73,39.65 -230.23,39.65 -128.74,0 -193.1,-42.93 -193.1,-128.75 0,-75.88 43.51,-113.85 130.66,-113.85 l 91.14,0 c 150.79,0 226.28,-64.39 226.28,-193.1 0,-138.64 -91.41,-207.96 -274.31,-207.96 -86.17,0 -166.36,9.94 -240.65,29.72 z" inkscape:connector-curvature="0" id="path44" style="fill:#af2b2d;fill-opacity:1;fill-rule:nonzero;stroke:none"/><path d="m 1347.43,4126.25 -826.887,-291 130.664,-1083.36 697.093,-383.14 700.7,388.34 130.62,1083.31 -832.19,285.85 z" inkscape:connector-curvature="0" id="path56" style="fill:#b3b3b3;fill-opacity:1;fill-rule:nonzero;stroke:none"/><path d="m 2097.14,3777.79 -751.64,256.32 0,-1573.82 629.91,348.62 121.73,968.88 z" inkscape:connector-curvature="0" id="path58" style="fill:#af2b2d;fill-opacity:1;fill-rule:nonzero;stroke:none"/><path d="m 613.332,3773.17 111.965,-968.89 620.193,-343.99 0,1573.85 -732.158,-260.97 z" inkscape:connector-curvature="0" id="path60" style="fill:#df2e31;fill-opacity:1;fill-rule:nonzero;stroke:none"/><path d="m 1519.72,3251.32 -172.85,360.97 -152.18,-360.97 325.03,0 z m 65.9,-151.78 -458.19,0 -102.51,-256.4 -190.674,-3.52 511.254,1137.34 529.08,-1137.34 -176.72,0 -112.24,259.92 z" inkscape:connector-curvature="0" id="path62" style="fill:#f2f2f2;fill-opacity:1;fill-rule:nonzero;stroke:none"/><path d="m 1345.5,3976.96 1.36,-364.67 172.68,-361.25 -173.66,0 -0.38,-151.27 240.12,-0.23 112.23,-259.97 182.44,-3.38 -534.79,1140.77 z" inkscape:connector-curvature="0" id="path64" style="fill:#b3b3b3;fill-opacity:1;fill-rule:nonzero;stroke:none"/></g></g></svg>